Bench12-Cond-Light.ufo
<glyph name="exclam" format="1">
  <advance width="286"/>
  <unicode hex="0021"/>
  <outline>
    <contour>
      <point x="143" y="432" type="curve" smooth="yes"/>
      <point x="144" y="432" type="line" smooth="yes"/>
      <point x="159" y="432"/>
      <point x="159" y="456"/>
      <point x="160" y="499" type="curve" smooth="yes"/>
      <point x="182" y="1343" type="line" smooth="yes"/>
      <point x="183" y="1386"/>
      <point x="172" y="1438"/>
      <point x="158" y="1438" type="curve" smooth="yes"/>
      <point x="127" y="1438" type="line" smooth="yes"/>
      <point x="111" y="1438"/>
      <point x="103" y="1414"/>
      <point x="104" y="1371" type="curve" smooth="yes"/>
      <point x="127" y="499" type="line" smooth="yes"/>
      <point x="128" y="456"/>
      <point x="128" y="432"/>
    </contour>
    <contour>
      <point x="142" y="0" type="curve" smooth="yes"/>
      <point x="181" y="0"/>
      <point x="189" y="72"/>
      <point x="189" y="119" type="curve" smooth="yes"/>
      <point x="189" y="166"/>
      <point x="176" y="231"/>
      <point x="142" y="231" type="curve" smooth="yes"/>
      <point x="111" y="231"/>
      <point x="98" y="170"/>
      <point x="98" y="119" type="curve" smooth="yes"/>
      <point x="98" y="71"/>
      <point x="109" y="0"/>
    </contour>
  </outline>
</glyph>
<glyph name="quotedbl" format="1">
  <advance width="379"/>
  <unicode hex="0022"/>
  <outline>
    <contour>
      <point x="130" y="772" type="curve" smooth="yes"/>
      <point x="132" y="772" type="line" smooth="yes"/>
      <point x="146" y="772"/>
      <point x="146" y="796"/>
      <point x="147" y="839" type="curve" smooth="yes"/>
      <point x="168" y="1350" type="line" smooth="yes"/>
      <point x="170" y="1393"/>
      <point x="160" y="1438"/>
      <point x="146" y="1438" type="curve" smooth="yes"/>
      <point x="115" y="1438" type="line" smooth="yes"/>
      <point x="99" y="1438"/>
      <point x="89" y="1394"/>
      <point x="91" y="1351" type="curve" smooth="yes"/>
      <point x="114" y="839" type="line" smooth="yes"/>
      <point x="116" y="796"/>
      <point x="116" y="772"/>
    </contour>
    <contour>
      <point x="247" y="772" type="curve" smooth="yes"/>
      <point x="249" y="772" type="line" smooth="yes"/>
      <point x="264" y="772"/>
      <point x="263" y="796"/>
      <point x="265" y="839" type="curve" smooth="yes"/>
      <point x="286" y="1350" type="line" smooth="yes"/>
      <point x="288" y="1393"/>
      <point x="278" y="1438"/>
      <point x="263" y="1438" type="curve" smooth="yes"/>
      <point x="231" y="1438" type="line" smooth="yes"/>
      <point x="217" y="1438"/>
      <point x="205" y="1394"/>
      <point x="207" y="1351" type="curve" smooth="yes"/>
      <point x="231" y="839" type="line" smooth="yes"/>
      <point x="233" y="796"/>
      <point x="233" y="772"/>
    </contour>
  </outline>
</glyph>
<glyph name="numbersign" format="1">
  <advance width="673"/>
  <unicode hex="0023"/>
  <outline>
    <contour>
      <point x="126" y="-205" type="curve" smooth="yes"/>
      <point x="162" y="-205" type="line" smooth="yes"/>
      <point x="170" y="-205"/>
      <point x="177" y="-191"/>
      <point x="179" y="-170" type="curve" smooth="yes"/>
      <point x="226" y="417" type="line"/>
      <point x="388" y="417" type="line"/>
      <point x="341" y="-170" type="line" smooth="yes"/>
      <point x="340" y="-187"/>
      <point x="343" y="-205"/>
      <point x="349" y="-205" type="curve" smooth="yes"/>
      <point x="385" y="-205" type="line" smooth="yes"/>
      <point x="392" y="-205"/>
      <point x="399" y="-191"/>
      <point x="401" y="-170" type="curve" smooth="yes"/>
      <point x="448" y="417" type="line"/>
      <point x="532" y="417" type="line" smooth="yes"/>
      <point x="549" y="417"/>
      <point x="555" y="431"/>
      <point x="555" y="474" type="curve" smooth="yes"/>
      <point x="555" y="530" type="line" smooth="yes"/>
      <point x="555" y="573"/>
      <point x="549" y="587"/>
      <point x="532" y="587" type="curve" smooth="yes"/>
      <point x="462" y="587" type="line"/>
      <point x="482" y="834" type="line"/>
      <point x="560" y="834" type="line" smooth="yes"/>
      <point x="574" y="834"/>
      <point x="581" y="848"/>
      <point x="581" y="891" type="curve" smooth="yes"/>
      <point x="581" y="949" type="line" smooth="yes"/>
      <point x="581" y="992"/>
      <point x="574" y="1006"/>
      <point x="560" y="1006" type="curve" smooth="yes"/>
      <point x="494" y="1006" type="line"/>
      <point x="543" y="1612" type="line" smooth="yes"/>
      <point x="545" y="1629"/>
      <point x="542" y="1647"/>
      <point x="537" y="1647" type="curve" smooth="yes"/>
      <point x="500" y="1647" type="line" smooth="yes"/>
      <point x="493" y="1647"/>
      <point x="486" y="1633"/>
      <point x="484" y="1612" type="curve" smooth="yes"/>
      <point x="434" y="1006" type="line"/>
      <point x="272" y="1006" type="line"/>
      <point x="321" y="1612" type="line" smooth="yes"/>
      <point x="322" y="1629"/>
      <point x="319" y="1647"/>
      <point x="314" y="1647" type="curve" smooth="yes"/>
      <point x="276" y="1647" type="line" smooth="yes"/>
      <point x="270" y="1647"/>
      <point x="262" y="1633"/>
      <point x="260" y="1612" type="curve" smooth="yes"/>
      <point x="211" y="1006" type="line"/>
      <point x="139" y="1006" type="line" smooth="yes"/>
      <point x="124" y="1006"/>
      <point x="117" y="992"/>
      <point x="117" y="949" type="curve" smooth="yes"/>
      <point x="117" y="891" type="line" smooth="yes"/>
      <point x="117" y="848"/>
      <point x="124" y="834"/>
      <point x="139" y="834" type="curve" smooth="yes"/>
      <point x="198" y="834" type="line"/>
      <point x="178" y="587" type="line"/>
      <point x="113" y="587" type="line" smooth="yes"/>
      <point x="98" y="587"/>
      <point x="90" y="573"/>
      <point x="90" y="530" type="curve" smooth="yes"/>
      <point x="90" y="474" type="line" smooth="yes"/>
      <point x="90" y="431"/>
      <point x="98" y="417"/>
      <point x="113" y="417" type="curve" smooth="yes"/>
      <point x="165" y="417" type="line"/>
      <point x="118" y="-170" type="line" smooth="yes"/>
      <point x="116" y="-187"/>
      <point x="120" y="-205"/>
    </contour>
    <contour>
      <point x="421" y="834" type="line"/>
      <point x="402" y="587" type="line"/>
      <point x="240" y="587" type="line"/>
      <point x="259" y="834" type="line"/>
    </contour>
  </outline>
</glyph>
<glyph name="asterisk" format="1">
  <advance width="524"/>
  <unicode hex="002A"/>
  <outline>
    <contour>
      <point x="174" y="295" type="curve" smooth="yes"/>
      <point x="186" y="295"/>
      <point x="196" y="316"/>
      <point x="201" y="346" type="curve" smooth="yes"/>
      <point x="260" y="695" type="line"/>
      <point x="320" y="346" type="line" smooth="yes"/>
      <point x="324" y="316"/>
      <point x="336" y="295"/>
      <point x="348" y="295" type="curve" smooth="yes"/>
      <point x="365" y="295"/>
      <point x="381" y="339"/>
      <point x="381" y="389" type="curve" smooth="yes"/>
      <point x="381" y="467"/>
      <point x="301" y="685"/>
      <point x="284" y="741" type="curve"/>
      <point x="414" y="824" type="line" smooth="yes"/>
      <point x="428" y="833"/>
      <point x="439" y="869"/>
      <point x="439" y="911" type="curve" smooth="yes"/>
      <point x="439" y="961"/>
      <point x="425" y="1009"/>
      <point x="408" y="1009" type="curve" smooth="yes"/>
      <point x="387" y="1009"/>
      <point x="296" y="853"/>
      <point x="274" y="820" type="curve"/>
      <point x="279" y="946"/>
      <point x="292" y="1095"/>
      <point x="292" y="1221" type="curve" smooth="yes"/>
      <point x="292" y="1271"/>
      <point x="277" y="1309"/>
      <point x="261" y="1309" type="curve" smooth="yes"/>
      <point x="245" y="1309"/>
      <point x="229" y="1276"/>
      <point x="229" y="1226" type="curve" smooth="yes"/>
      <point x="229" y="1098"/>
      <point x="240" y="948"/>
      <point x="247" y="820" type="curve"/>
      <point x="225" y="853"/>
      <point x="134" y="1009"/>
      <point x="114" y="1009" type="curve" smooth="yes"/>
      <point x="96" y="1009"/>
      <point x="82" y="961"/>
      <point x="82" y="911" type="curve" smooth="yes"/>
      <point x="82" y="869"/>
      <point x="93" y="833"/>
      <point x="107" y="824" type="curve" smooth="yes"/>
      <point x="237" y="741" type="line"/>
      <point x="220" y="685"/>
      <point x="141" y="467"/>
      <point x="141" y="389" type="curve" smooth="yes"/>
      <point x="141" y="339"/>
      <point x="158" y="295"/>
    </contour>
  </outline>
</glyph>
<glyph name="plus" format="1">
  <advance width="512"/>
  <unicode hex="002B"/>
  <outline>
    <contour>
      <point x="226" y="20" type="curve" smooth="yes"/>
      <point x="285" y="20" type="line" smooth="yes"/>
      <point x="300" y="20"/>
      <point x="311" y="54"/>
      <point x="311" y="97" type="curve" smooth="yes"/>
      <point x="311" y="360" type="line" smooth="yes"/>
      <point x="311" y="380"/>
      <point x="318" y="397"/>
      <point x="324" y="397" type="curve" smooth="yes"/>
      <point x="406" y="397" type="line" smooth="yes"/>
      <point x="420" y="397"/>
      <point x="431" y="431"/>
      <point x="431" y="474" type="curve" smooth="yes"/>
      <point x="431" y="625" type="line" smooth="yes"/>
      <point x="431" y="668"/>
      <point x="420" y="702"/>
      <point x="406" y="702" type="curve" smooth="yes"/>
      <point x="324" y="702" type="line" smooth="yes"/>
      <point x="318" y="702"/>
      <point x="311" y="719"/>
      <point x="311" y="739" type="curve" smooth="yes"/>
      <point x="311" y="1002" type="line" smooth="yes"/>
      <point x="311" y="1045"/>
      <point x="300" y="1079"/>
      <point x="285" y="1079" type="curve" smooth="yes"/>
      <point x="226" y="1079" type="line" smooth="yes"/>
      <point x="212" y="1079"/>
      <point x="200" y="1045"/>
      <point x="200" y="1002" type="curve" smooth="yes"/>
      <point x="200" y="739" type="line" smooth="yes"/>
      <point x="200" y="719"/>
      <point x="193" y="702"/>
      <point x="187" y="702" type="curve" smooth="yes"/>
      <point x="104" y="702" type="line" smooth="yes"/>
      <point x="89" y="702"/>
      <point x="78" y="668"/>
      <point x="78" y="625" type="curve" smooth="yes"/>
      <point x="78" y="474" type="line" smooth="yes"/>
      <point x="78" y="431"/>
      <point x="89" y="397"/>
      <point x="104" y="397" type="curve" smooth="yes"/>
      <point x="187" y="397" type="line" smooth="yes"/>
      <point x="193" y="397"/>
      <point x="200" y="380"/>
      <point x="200" y="360" type="curve" smooth="yes"/>
      <point x="200" y="97" type="line" smooth="yes"/>
      <point x="200" y="54"/>
      <point x="212" y="20"/>
    </contour>
  </outline>
</glyph>
<glyph name="slash" format="1">
  <advance width="457"/>
  <unicode hex="002F"/>
  <outline>
    <contour>
      <point x="81" y="-205" type="curve" smooth="yes"/>
      <point x="138" y="-205" type="line" smooth="yes"/>
      <point x="145" y="-205"/>
      <point x="151" y="-191"/>
      <point x="154" y="-170" type="curve" smooth="yes"/>
      <point x="388" y="1612" type="line" smooth="yes"/>
      <point x="390" y="1629"/>
      <point x="385" y="1647"/>
      <point x="380" y="1647" type="curve" smooth="yes"/>
      <point x="324" y="1647" type="line" smooth="yes"/>
      <point x="318" y="1647"/>
      <point x="309" y="1633"/>
      <point x="307" y="1612" type="curve" smooth="yes"/>
      <point x="73" y="-170" type="line" smooth="yes"/>
      <point x="71" y="-187"/>
      <point x="75" y="-205"/>
    </contour>
  </outline>
</glyph>
<glyph name="one" format="1">
  <advance width="378"/>
  <unicode hex="0031"/>
  <outline>
    <contour>
      <point x="221" y="0" type="curve" smooth="yes"/>
      <point x="254" y="0" type="line" smooth="yes"/>
      <point x="267" y="0"/>
      <point x="276" y="24"/>
      <point x="276" y="67" type="curve" smooth="yes"/>
      <point x="276" y="1371" type="line" smooth="yes"/>
      <point x="276" y="1414"/>
      <point x="267" y="1439"/>
      <point x="254" y="1435" type="curve" smooth="yes"/>
      <point x="91" y="1390" type="line" smooth="yes"/>
      <point x="78" y="1386"/>
      <point x="70" y="1364"/>
      <point x="70" y="1321" type="curve" smooth="yes"/>
      <point x="70" y="1286" type="line" smooth="yes"/>
      <point x="70" y="1243"/>
      <point x="78" y="1218"/>
      <point x="92" y="1222" type="curve" smooth="yes"/>
      <point x="185" y="1248" type="line" smooth="yes"/>
      <point x="193" y="1250"/>
      <point x="199" y="1232"/>
      <point x="199" y="1212" type="curve" smooth="yes"/>
      <point x="199" y="67" type="line" smooth="yes"/>
      <point x="199" y="24"/>
      <point x="206" y="0"/>
    </contour>
  </outline>
</glyph>
<glyph name="A" format="1">
  <advance width="728"/>
  <unicode hex="0041"/>
  <outline>
    <contour>
      <point x="94" y="0" type="curve" smooth="yes"/>
      <point x="129" y="0" type="line" smooth="yes"/>
      <point x="145" y="0"/>
      <point x="154" y="10"/>
      <point x="162" y="53" type="curve" smooth="yes"/>
      <point x="213" y="354" type="line"/>
      <point x="216" y="360" type="line"/>
      <point x="515" y="360" type="line"/>
      <point x="518" y="355" type="line"/>
      <point x="562" y="53" type="line" smooth="yes"/>
      <point x="568" y="9"/>
      <point x="586" y="0"/>
      <point x="600" y="0" type="curve" smooth="yes"/>
      <point x="635" y="0" type="line" smooth="yes"/>
      <point x="645" y="0"/>
      <point x="650" y="11"/>
      <point x="650" y="31" type="curve" smooth="yes"/>
      <point x="650" y="41"/>
      <point x="645" y="39"/>
      <point x="643" y="53" type="curve" smooth="yes"/>
      <point x="423" y="1390" type="line" smooth="yes"/>
      <point x="417" y="1431"/>
      <point x="406" y="1435"/>
      <point x="392" y="1438" type="curve"/>
      <point x="351" y="1438" type="line"/>
      <point x="337" y="1435"/>
      <point x="326" y="1431"/>
      <point x="319" y="1390" type="curve" smooth="yes"/>
      <point x="80" y="53" type="line" smooth="yes"/>
      <point x="77" y="39"/>
      <point x="79" y="42"/>
      <point x="79" y="32" type="curve" smooth="yes"/>
      <point x="79" y="11"/>
      <point x="85" y="0"/>
    </contour>
    <contour>
      <point x="499" y="422" type="curve" smooth="yes"/>
      <point x="236" y="422" type="line" smooth="yes"/>
      <point x="233" y="422"/>
      <point x="233" y="424"/>
      <point x="233" y="426" type="curve" smooth="yes"/>
      <point x="233" y="427"/>
      <point x="233" y="428"/>
      <point x="233" y="429" type="curve"/>
      <point x="370" y="1278" type="line"/>
      <point x="370" y="1278"/>
      <point x="370" y="1280"/>
      <point x="371" y="1280" type="curve"/>
      <point x="371" y="1280"/>
      <point x="371" y="1279"/>
      <point x="372" y="1278" type="curve"/>
      <point x="499" y="430" type="line"/>
      <point x="501" y="429"/>
      <point x="501" y="427"/>
      <point x="501" y="425" type="curve" smooth="yes"/>
      <point x="501" y="423"/>
      <point x="501" y="422"/>
    </contour>
  </outline>
</glyph>
<glyph name="K" format="1">
  <advance width="639"/>
  <unicode hex="004B"/>
  <outline>
    <contour>
      <point x="124" y="0" type="curve" smooth="yes"/>
      <point x="156" y="0" type="line" smooth="yes"/>
      <point x="171" y="0"/>
      <point x="179" y="24"/>
      <point x="179" y="67" type="curve" smooth="yes"/>
      <point x="179" y="735" type="line"/>
      <point x="445" y="67" type="line" smooth="yes"/>
      <point x="459" y="32"/>
      <point x="469" y="0"/>
      <point x="483" y="0" type="curve" smooth="yes"/>
      <point x="540" y="0" type="line" smooth="yes"/>
      <point x="554" y="0"/>
      <point x="560" y="33"/>
      <point x="547" y="67" type="curve" smooth="yes"/>
      <point x="277" y="736" type="line" smooth="yes"/>
      <point x="275" y="741"/>
      <point x="275" y="745"/>
      <point x="275" y="748" type="curve" smooth="yes"/>
      <point x="275" y="753"/>
      <point x="276" y="757"/>
      <point x="276" y="759" type="curve"/>
      <point x="523" y="1365" type="line" smooth="yes"/>
      <point x="537" y="1399"/>
      <point x="529" y="1438"/>
      <point x="515" y="1438" type="curve" smooth="yes"/>
      <point x="461" y="1438" type="line" smooth="yes"/>
      <point x="447" y="1438"/>
      <point x="437" y="1410"/>
      <point x="423" y="1376" type="curve" smooth="yes"/>
      <point x="179" y="762" type="line"/>
      <point x="179" y="1371" type="line" smooth="yes"/>
      <point x="179" y="1414"/>
      <point x="171" y="1438"/>
      <point x="156" y="1438" type="curve" smooth="yes"/>
      <point x="124" y="1438" type="line" smooth="yes"/>
      <point x="110" y="1438"/>
      <point x="102" y="1414"/>
      <point x="102" y="1371" type="curve" smooth="yes"/>
      <point x="102" y="67" type="line" smooth="yes"/>
      <point x="102" y="24"/>
      <point x="110" y="0"/>
    </contour>
  </outline>
</glyph>
<glyph name="L" format="1">
  <advance width="559"/>
  <unicode hex="004C"/>
  <outline>
    <contour>
      <point x="125" y="0" type="curve" smooth="yes"/>
      <point x="461" y="0" type="line" smooth="yes"/>
      <point x="474" y="0"/>
      <point x="484" y="0"/>
      <point x="484" y="27" type="curve" smooth="yes"/>
      <point x="484" y="35" type="line" smooth="yes"/>
      <point x="484" y="60"/>
      <point x="474" y="60"/>
      <point x="461" y="60" type="curve" smooth="yes"/>
      <point x="194" y="60" type="line" smooth="yes"/>
      <point x="186" y="60"/>
      <point x="180" y="58"/>
      <point x="180" y="78" type="curve" smooth="yes"/>
      <point x="180" y="1391" type="line" smooth="yes"/>
      <point x="180" y="1434"/>
      <point x="172" y="1438"/>
      <point x="157" y="1438" type="curve" smooth="yes"/>
      <point x="125" y="1438" type="line" smooth="yes"/>
      <point x="111" y="1438"/>
      <point x="103" y="1434"/>
      <point x="103" y="1391" type="curve" smooth="yes"/>
      <point x="103" y="47" type="line" smooth="yes"/>
      <point x="103" y="4"/>
      <point x="111" y="0"/>
    </contour>
  </outline>
</glyph>
<glyph name="O" format="1">
  <advance width="863"/>
  <unicode hex="004F"/>
  <outline>
    <contour>
      <point x="430" y="43" type="curve" smooth="yes"/>
      <point x="266" y="43"/>
      <point x="169" y="128"/>
      <point x="169" y="724" type="curve" smooth="yes"/>
      <point x="169" y="1252"/>
      <point x="262" y="1392"/>
      <point x="430" y="1392" type="curve" smooth="yes"/>
      <point x="600" y="1392"/>
      <point x="692" y="1273"/>
      <point x="692" y="724" type="curve" smooth="yes"/>
      <point x="692" y="114"/>
      <point x="596" y="43"/>
    </contour>
    <contour>
      <point x="430" y="-21" type="curve" smooth="yes"/>
      <point x="654" y="-21"/>
      <point x="771" y="85"/>
      <point x="771" y="724" type="curve" smooth="yes"/>
      <point x="771" y="1316"/>
      <point x="654" y="1455"/>
      <point x="430" y="1455" type="curve" smooth="yes"/>
      <point x="209" y="1455"/>
      <point x="90" y="1306"/>
      <point x="90" y="724" type="curve" smooth="yes"/>
      <point x="90" y="95"/>
      <point x="209" y="-21"/>
    </contour>
  </outline>
</glyph>
<glyph name="P" format="1">
  <advance width="803"/>
  <unicode hex="0050"/>
  <outline>
    <contour>
      <point x="125" y="0" type="curve" smooth="yes"/>
      <point x="157" y="0" type="line" smooth="yes"/>
      <point x="172" y="0"/>
      <point x="180" y="6"/>
      <point x="180" y="42" type="curve" smooth="yes"/>
      <point x="180" y="546" type="line" smooth="yes"/>
      <point x="180" y="554"/>
      <point x="182" y="558"/>
      <point x="187" y="558" type="curve" smooth="yes"/>
      <point x="404" y="558" type="line" smooth="yes"/>
      <point x="586" y="558"/>
      <point x="714" y="578"/>
      <point x="714" y="994" type="curve" smooth="yes"/>
      <point x="714" y="1429"/>
      <point x="539" y="1438"/>
      <point x="351" y="1438" type="curve" smooth="yes"/>
      <point x="125" y="1438" type="line" smooth="yes"/>
      <point x="111" y="1438"/>
      <point x="103" y="1436"/>
      <point x="103" y="1393" type="curve" smooth="yes"/>
      <point x="103" y="42" type="line" smooth="yes"/>
      <point x="103" y="5"/>
      <point x="111" y="0"/>
    </contour>
    <contour>
      <point x="402" y="618" type="curve" smooth="yes"/>
      <point x="185" y="618" type="line" smooth="yes"/>
      <point x="180" y="618"/>
      <point x="180" y="623"/>
      <point x="180" y="628" type="curve" smooth="yes"/>
      <point x="180" y="809"/>
      <point x="180" y="1364"/>
      <point x="180" y="1369" type="curve" smooth="yes"/>
      <point x="180" y="1375"/>
      <point x="182" y="1378"/>
      <point x="186" y="1378" type="curve" smooth="yes"/>
      <point x="351" y="1378" type="line" smooth="yes"/>
      <point x="519" y="1378"/>
      <point x="637" y="1368"/>
      <point x="637" y="994" type="curve" smooth="yes"/>
      <point x="637" y="648"/>
      <point x="574" y="618"/>
    </contour>
  </outline>
</glyph>
<glyph name="R" format="1">
  <advance width="832"/>
  <unicode hex="0052"/>
  <outline>
    <contour>
      <point x="125" y="0" type="curve" smooth="yes"/>
      <point x="157" y="0" type="line" smooth="yes"/>
      <point x="172" y="0"/>
      <point x="180" y="6"/>
      <point x="180" y="42" type="curve" smooth="yes"/>
      <point x="180" y="616" type="line" smooth="yes"/>
      <point x="180" y="624"/>
      <point x="182" y="628"/>
      <point x="187" y="628" type="curve" smooth="yes"/>
      <point x="384" y="628" type="line" smooth="yes"/>
      <point x="415" y="628"/>
      <point x="445" y="629"/>
      <point x="474" y="632" type="curve"/>
      <point x="497" y="599"/>
      <point x="536" y="531"/>
      <point x="572" y="403" type="curve" smooth="yes"/>
      <point x="664" y="56" type="line"/>
      <point x="672" y="17"/>
      <point x="675" y="0"/>
      <point x="689" y="0" type="curve" smooth="yes"/>
      <point x="717" y="0" type="line" smooth="yes"/>
      <point x="730" y="0"/>
      <point x="744" y="16"/>
      <point x="736" y="56" type="curve"/>
      <point x="644" y="417" type="line" smooth="yes"/>
      <point x="611" y="535"/>
      <point x="571" y="601"/>
      <point x="543" y="635" type="curve"/>
      <point x="542" y="638"/>
      <point x="541" y="641"/>
      <point x="541" y="643" type="curve" smooth="yes"/>
      <point x="541" y="647"/>
      <point x="544" y="648"/>
      <point x="546" y="649" type="curve"/>
      <point x="646" y="685"/>
      <point x="714" y="786"/>
      <point x="714" y="1054" type="curve" smooth="yes"/>
      <point x="714" y="1438"/>
      <point x="539" y="1438"/>
      <point x="351" y="1438" type="curve" smooth="yes"/>
      <point x="125" y="1438" type="line" smooth="yes"/>
      <point x="111" y="1438"/>
      <point x="103" y="1436"/>
      <point x="103" y="1393" type="curve" smooth="yes"/>
      <point x="103" y="42" type="line" smooth="yes"/>
      <point x="103" y="5"/>
      <point x="111" y="0"/>
    </contour>
    <contour>
      <point x="382" y="688" type="curve" smooth="yes"/>
      <point x="185" y="688" type="line" smooth="yes"/>
      <point x="180" y="688"/>
      <point x="180" y="693"/>
      <point x="180" y="698" type="curve" smooth="yes"/>
      <point x="180" y="1369" type="line" smooth="yes"/>
      <point x="180" y="1375"/>
      <point x="182" y="1378"/>
      <point x="186" y="1378" type="curve" smooth="yes"/>
      <point x="351" y="1378" type="line" smooth="yes"/>
      <point x="519" y="1378"/>
      <point x="637" y="1375"/>
      <point x="637" y="1054" type="curve" smooth="yes"/>
      <point x="637" y="729"/>
      <point x="554" y="688"/>
    </contour>
  </outline>
</glyph>
<glyph name="S" format="1">
  <advance width="831"/>
  <unicode hex="0053"/>
  <outline>
    <contour>
      <point x="412" y="-21" type="curve" smooth="yes"/>
      <point x="645" y="-21"/>
      <point x="741" y="90"/>
      <point x="741" y="394" type="curve" smooth="yes"/>
      <point x="741" y="616"/>
      <point x="666" y="706"/>
      <point x="463" y="773" type="curve" smooth="yes"/>
      <point x="218" y="854"/>
      <point x="169" y="899"/>
      <point x="169" y="1094" type="curve" smooth="yes"/>
      <point x="169" y="1283"/>
      <point x="264" y="1392"/>
      <point x="408" y="1392" type="curve" smooth="yes"/>
      <point x="605" y="1392"/>
      <point x="639" y="1310"/>
      <point x="663" y="1310" type="curve" smooth="yes"/>
      <point x="676" y="1310"/>
      <point x="684" y="1314"/>
      <point x="684" y="1325" type="curve"/>
      <point x="684" y="1325"/>
      <point x="684" y="1325"/>
      <point x="684" y="1335" type="curve" smooth="yes"/>
      <point x="684" y="1363"/>
      <point x="679" y="1366"/>
      <point x="671" y="1376" type="curve"/>
      <point x="600" y="1440"/>
      <point x="518" y="1455"/>
      <point x="410" y="1455" type="curve" smooth="yes"/>
      <point x="238" y="1455"/>
      <point x="96" y="1350"/>
      <point x="96" y="1084" type="curve" smooth="yes"/>
      <point x="96" y="855"/>
      <point x="183" y="789"/>
      <point x="446" y="703" type="curve" smooth="yes"/>
      <point x="655" y="635"/>
      <point x="666" y="534"/>
      <point x="666" y="379" type="curve" smooth="yes"/>
      <point x="666" y="140"/>
      <point x="587" y="43"/>
      <point x="420" y="43" type="curve" smooth="yes"/>
      <point x="221" y="43"/>
      <point x="146" y="111"/>
      <point x="121" y="111" type="curve" smooth="yes"/>
      <point x="109" y="111"/>
      <point x="100" y="111"/>
      <point x="95" y="89" type="curve"/>
      <point x="95" y="89"/>
      <point x="95" y="88"/>
      <point x="95" y="79" type="curve" smooth="yes"/>
      <point x="95" y="68"/>
      <point x="92" y="64"/>
      <point x="101" y="54" type="curve" smooth="yes"/>
      <point x="132" y="21"/>
      <point x="266" y="-21"/>
    </contour>
  </outline>
</glyph>
<glyph name="V" format="1">
  <advance width="749"/>
  <unicode hex="0056"/>
  <outline>
    <contour>
      <point x="365" y="0" type="curve"/>
      <point x="402" y="0" type="line"/>
      <point x="417" y="3"/>
      <point x="427" y="26"/>
      <point x="434" y="67" type="curve" smooth="yes"/>
      <point x="669" y="1371" type="line" smooth="yes"/>
      <point x="677" y="1414"/>
      <point x="673" y="1438"/>
      <point x="658" y="1438" type="curve" smooth="yes"/>
      <point x="620" y="1438" type="line" smooth="yes"/>
      <point x="605" y="1438"/>
      <point x="592" y="1414"/>
      <point x="585" y="1371" type="curve" smooth="yes"/>
      <point x="384" y="192" type="line"/>
      <point x="165" y="1371" type="line" smooth="yes"/>
      <point x="156" y="1414"/>
      <point x="144" y="1438"/>
      <point x="130" y="1438" type="curve" smooth="yes"/>
      <point x="88" y="1438" type="line" smooth="yes"/>
      <point x="74" y="1438"/>
      <point x="69" y="1414"/>
      <point x="78" y="1371" type="curve" smooth="yes"/>
      <point x="330" y="67" type="line" smooth="yes"/>
      <point x="339" y="26"/>
      <point x="352" y="3"/>
    </contour>
  </outline>
</glyph>
<glyph name="Z" format="1">
  <advance width="648"/>
  <unicode hex="005A"/>
  <outline>
    <contour>
      <point x="110" y="0" type="curve" smooth="yes"/>
      <point x="540" y="0" type="line" smooth="yes"/>
      <point x="553" y="0"/>
      <point x="562" y="0"/>
      <point x="562" y="27" type="curve" smooth="yes"/>
      <point x="562" y="33" type="line" smooth="yes"/>
      <point x="562" y="60"/>
      <point x="553" y="60"/>
      <point x="540" y="60" type="curve" smooth="yes"/>
      <point x="187" y="60" type="line" smooth="yes"/>
      <point x="181" y="60"/>
      <point x="180" y="66"/>
      <point x="180" y="74" type="curve" smooth="yes"/>
      <point x="180" y="82"/>
      <point x="182" y="92"/>
      <point x="185" y="102" type="curve" smooth="yes"/>
      <point x="543" y="1326" type="line" smooth="yes"/>
      <point x="547" y="1340"/>
      <point x="555" y="1363"/>
      <point x="555" y="1406" type="curve" smooth="yes"/>
      <point x="555" y="1411" type="line" smooth="yes"/>
      <point x="555" y="1438"/>
      <point x="546" y="1438"/>
      <point x="532" y="1438" type="curve" smooth="yes"/>
      <point x="114" y="1438" type="line" smooth="yes"/>
      <point x="99" y="1438"/>
      <point x="91" y="1438"/>
      <point x="91" y="1411" type="curve" smooth="yes"/>
      <point x="91" y="1405" type="line" smooth="yes"/>
      <point x="91" y="1378"/>
      <point x="99" y="1378"/>
      <point x="114" y="1378" type="curve" smooth="yes"/>
      <point x="459" y="1378" type="line" smooth="yes"/>
      <point x="467" y="1378"/>
      <point x="471" y="1369"/>
      <point x="471" y="1358" type="curve" smooth="yes"/>
      <point x="471" y="1348"/>
      <point x="468" y="1337"/>
      <point x="465" y="1326" type="curve" smooth="yes"/>
      <point x="94" y="69" type="line" smooth="yes"/>
      <point x="90" y="55"/>
      <point x="88" y="54"/>
      <point x="88" y="30" type="curve" smooth="yes"/>
      <point x="88" y="27" type="line" smooth="yes"/>
      <point x="88" y="0"/>
      <point x="96" y="0"/>
    </contour>
  </outline>
</glyph>
<glyph name="c" format="1">
  <advance width="614"/>
  <unicode hex="0063"/>
  <outline>
    <contour>
      <point x="339" y="-20" type="curve" smooth="yes"/>
      <point x="408" y="-19"/>
      <point x="454" y="5"/>
      <point x="494" y="61" type="curve" smooth="yes"/>
      <point x="508" y="81"/>
      <point x="511" y="85"/>
      <point x="507" y="114" type="curve" smooth="yes"/>
      <point x="506" y="121"/>
      <point x="504" y="130"/>
      <point x="504" y="130" type="curve"/>
      <point x="500" y="148"/>
      <point x="488" y="149"/>
      <point x="477" y="130" type="curve" smooth="yes"/>
      <point x="457" y="96"/>
      <point x="421" y="42"/>
      <point x="344" y="42" type="curve" smooth="yes"/>
      <point x="249" y="42"/>
      <point x="162" y="126"/>
      <point x="162" y="514" type="curve" smooth="yes"/>
      <point x="162" y="916"/>
      <point x="256" y="989"/>
      <point x="338" y="989" type="curve" smooth="yes"/>
      <point x="408" y="989"/>
      <point x="449" y="950"/>
      <point x="482" y="894" type="curve" smooth="yes"/>
      <point x="490" y="880"/>
      <point x="510" y="837"/>
      <point x="517" y="880" type="curve" smooth="yes"/>
      <point x="520" y="895" type="line"/>
      <point x="523" y="917"/>
      <point x="522" y="929"/>
      <point x="511" y="948" type="curve" smooth="yes"/>
      <point x="465" y="1031"/>
      <point x="394" y="1052"/>
      <point x="339" y="1052" type="curve" smooth="yes"/>
      <point x="227" y="1052"/>
      <point x="84" y="962"/>
      <point x="84" y="514" type="curve" smooth="yes"/>
      <point x="84" y="76"/>
      <point x="228" y="-22"/>
    </contour>
  </outline>
</glyph>
<glyph name="j" format="1">
  <advance width="355"/>
  <unicode hex="006A"/>
  <outline>
    <contour>
      <point x="72" y="-372" type="curve" smooth="yes"/>
      <point x="109" y="-378" type="line" smooth="yes"/>
      <point x="213" y="-395"/>
      <point x="252" y="-259"/>
      <point x="252" y="6" type="curve" smooth="yes"/>
      <point x="252" y="939" type="line" smooth="yes"/>
      <point x="252" y="982"/>
      <point x="245" y="1006"/>
      <point x="229" y="1006" type="curve" smooth="yes"/>
      <point x="198" y="1006" type="line" smooth="yes"/>
      <point x="184" y="1006"/>
      <point x="175" y="982"/>
      <point x="175" y="939" type="curve" smooth="yes"/>
      <point x="175" y="140" type="line" smooth="yes"/>
      <point x="175" y="-46"/>
      <point x="168" y="-191"/>
      <point x="112" y="-178" type="curve" smooth="yes"/>
      <point x="72" y="-169" type="line" smooth="yes"/>
      <point x="56" y="-166"/>
      <point x="49" y="-193"/>
      <point x="49" y="-236" type="curve" smooth="yes"/>
      <point x="49" y="-305" type="line" smooth="yes"/>
      <point x="49" y="-348"/>
      <point x="56" y="-370"/>
    </contour>
    <contour>
      <point x="196" y="1179" type="curve" smooth="yes"/>
      <point x="228" y="1179" type="line" smooth="yes"/>
      <point x="241" y="1179"/>
      <point x="250" y="1203"/>
      <point x="250" y="1246" type="curve" smooth="yes"/>
      <point x="250" y="1344" type="line" smooth="yes"/>
      <point x="250" y="1387"/>
      <point x="241" y="1411"/>
      <point x="228" y="1411" type="curve" smooth="yes"/>
      <point x="196" y="1411" type="line" smooth="yes"/>
      <point x="180" y="1411"/>
      <point x="173" y="1387"/>
      <point x="173" y="1344" type="curve" smooth="yes"/>
      <point x="173" y="1246" type="line" smooth="yes"/>
      <point x="173" y="1203"/>
      <point x="180" y="1179"/>
    </contour>
  </outline>
</glyph>
<glyph name="q" format="1">
  <advance width="657"/>
  <unicode hex="0071"/>
  <outline>
    <contour>
      <point x="504" y="-427" type="curve" smooth="yes"/>
      <point x="535" y="-427" type="line" smooth="yes"/>
      <point x="549" y="-427"/>
      <point x="558" y="-403"/>
      <point x="558" y="-360" type="curve" smooth="yes"/>
      <point x="558" y="944" type="line" smooth="yes"/>
      <point x="558" y="987"/>
      <point x="555" y="1011"/>
      <point x="540" y="1011" type="curve" smooth="yes"/>
      <point x="535" y="1011" type="line" smooth="yes"/>
      <point x="525" y="1011"/>
      <point x="517" y="992"/>
      <point x="510" y="927" type="curve" smooth="yes"/>
      <point x="506" y="888"/>
      <point x="500" y="843"/>
      <point x="496" y="808" type="curve"/>
      <point x="495" y="802"/>
      <point x="494" y="800"/>
      <point x="494" y="800" type="curve"/>
      <point x="493" y="800"/>
      <point x="491" y="802"/>
      <point x="490" y="805" type="curve"/>
      <point x="450" y="968"/>
      <point x="376" y="1052"/>
      <point x="309" y="1052" type="curve" smooth="yes"/>
      <point x="209" y="1052"/>
      <point x="84" y="904"/>
      <point x="84" y="507" type="curve" smooth="yes"/>
      <point x="84" y="99"/>
      <point x="205" y="-42"/>
      <point x="315" y="-42" type="curve" smooth="yes"/>
      <point x="382" y="-42"/>
      <point x="439" y="22"/>
      <point x="476" y="148" type="curve"/>
      <point x="476" y="149"/>
      <point x="479" y="154"/>
      <point x="479" y="154" type="curve"/>
      <point x="479" y="154"/>
      <point x="480" y="152"/>
      <point x="480" y="145" type="curve" smooth="yes"/>
      <point x="480" y="-360" type="line" smooth="yes"/>
      <point x="480" y="-403"/>
      <point x="488" y="-427"/>
    </contour>
    <contour>
      <point x="321" y="110" type="curve" smooth="yes"/>
      <point x="239" y="110"/>
      <point x="162" y="223"/>
      <point x="162" y="507" type="curve" smooth="yes"/>
      <point x="162" y="768"/>
      <point x="234" y="900"/>
      <point x="321" y="900" type="curve" smooth="yes"/>
      <point x="409" y="900"/>
      <point x="480" y="765"/>
      <point x="480" y="507" type="curve" smooth="yes"/>
      <point x="480" y="225"/>
      <point x="403" y="110"/>
    </contour>
  </outline>
</glyph>
<glyph name="v" format="1">
  <advance width="618"/>
  <unicode hex="0076"/>
  <outline>
    <contour>
      <point x="291" y="1" type="curve" smooth="yes"/>
      <point x="329" y="1" type="line" smooth="yes"/>
      <point x="343" y="1"/>
      <point x="357" y="27"/>
      <point x="365" y="67" type="curve" smooth="yes"/>
      <point x="529" y="939" type="line" smooth="yes"/>
      <point x="533" y="957"/>
      <point x="535" y="971"/>
      <point x="535" y="982" type="curve" smooth="yes"/>
      <point x="535" y="998"/>
      <point x="531" y="1006"/>
      <point x="522" y="1006" type="curve" smooth="yes"/>
      <point x="480" y="1006" type="line" smooth="yes"/>
      <point x="466" y="1006"/>
      <point x="456" y="985"/>
      <point x="448" y="939" type="curve" smooth="yes"/>
      <point x="316" y="175" type="line" smooth="yes"/>
      <point x="315" y="169"/>
      <point x="314" y="166"/>
      <point x="313" y="166" type="curve" smooth="yes"/>
      <point x="311" y="166"/>
      <point x="310" y="169"/>
      <point x="309" y="175" type="curve" smooth="yes"/>
      <point x="164" y="939" type="line" smooth="yes"/>
      <point x="156" y="982"/>
      <point x="150" y="1006"/>
      <point x="134" y="1006" type="curve" smooth="yes"/>
      <point x="93" y="1006" type="line" smooth="yes"/>
      <point x="83" y="1006"/>
      <point x="79" y="996"/>
      <point x="79" y="977" type="curve" smooth="yes"/>
      <point x="79" y="967"/>
      <point x="80" y="954"/>
      <point x="83" y="939" type="curve" smooth="yes"/>
      <point x="260" y="67" type="line" smooth="yes"/>
      <point x="268" y="27"/>
      <point x="278" y="1"/>
    </contour>
  </outline>
</glyph>
<glyph name="y" format="1">
  <advance width="644"/>
  <unicode hex="0079"/>
  <outline>
    <contour>
      <point x="241" y="-694" type="curve" smooth="yes"/>
      <point x="314" y="-686"/>
      <point x="340" y="-513"/>
      <point x="380" y="-249" type="curve" smooth="yes"/>
      <point x="557" y="936" type="line" smooth="yes"/>
      <point x="558" y="943"/>
      <point x="559" y="950"/>
      <point x="559" y="957" type="curve" smooth="yes"/>
      <point x="559" y="983"/>
      <point x="553" y="1006"/>
      <point x="543" y="1006" type="curve" smooth="yes"/>
      <point x="511" y="1006" type="line" smooth="yes"/>
      <point x="496" y="1006"/>
      <point x="482" y="977"/>
      <point x="478" y="934" type="curve" smooth="yes"/>
      <point x="348" y="14" type="line" smooth="yes"/>
      <point x="347" y="7"/>
      <point x="346" y="3"/>
      <point x="344" y="3" type="curve" smooth="yes"/>
      <point x="342" y="3"/>
      <point x="341" y="6"/>
      <point x="339" y="12" type="curve"/>
      <point x="167" y="937" type="line" smooth="yes"/>
      <point x="161" y="979"/>
      <point x="146" y="1006"/>
      <point x="130" y="1006" type="curve" smooth="yes"/>
      <point x="96" y="1006" type="line" smooth="yes"/>
      <point x="87" y="1006"/>
      <point x="80" y="985"/>
      <point x="80" y="962" type="curve" smooth="yes"/>
      <point x="80" y="955"/>
      <point x="81" y="947"/>
      <point x="82" y="940" type="curve"/>
      <point x="293" y="-115" type="line" smooth="yes"/>
      <point x="300" y="-154"/>
      <point x="303" y="-167"/>
      <point x="303" y="-198" type="curve" smooth="yes"/>
      <point x="303" y="-349"/>
      <point x="277" y="-539"/>
      <point x="239" y="-539" type="curve" smooth="yes"/>
      <point x="230" y="-539" type="line" smooth="yes"/>
      <point x="211" y="-539"/>
      <point x="185" y="-507"/>
      <point x="165" y="-476" type="curve" smooth="yes"/>
      <point x="163" y="-473"/>
      <point x="161" y="-472"/>
      <point x="159" y="-472" type="curve" smooth="yes"/>
      <point x="154" y="-472"/>
      <point x="148" y="-481"/>
      <point x="143" y="-504" type="curve" smooth="yes"/>
      <point x="136" y="-545" type="line" smooth="yes"/>
      <point x="135" y="-552"/>
      <point x="134" y="-560"/>
      <point x="134" y="-567" type="curve" smooth="yes"/>
      <point x="134" y="-581"/>
      <point x="136" y="-595"/>
      <point x="140" y="-606" type="curve" smooth="yes"/>
      <point x="162" y="-662"/>
      <point x="195" y="-699"/>
    </contour>
  </outline>
</glyph>
<glyph name="braceright" format="1">
  <advance width="503"/>
  <unicode hex="007D"/>
  <outline>
    <contour>
      <point x="118" y="-123" type="curve" smooth="yes"/>
      <point x="211" y="-123" type="line" smooth="yes"/>
      <point x="373" y="-123"/>
      <point x="292" y="478"/>
      <point x="391" y="563" type="curve" smooth="yes"/>
      <point x="410" y="579"/>
      <point x="419" y="608"/>
      <point x="419" y="664" type="curve" smooth="yes"/>
      <point x="419" y="756" type="line" smooth="yes"/>
      <point x="419" y="812"/>
      <point x="410" y="841"/>
      <point x="391" y="857" type="curve" smooth="yes"/>
      <point x="292" y="942"/>
      <point x="373" y="1543"/>
      <point x="211" y="1543" type="curve" smooth="yes"/>
      <point x="118" y="1543" type="line" smooth="yes"/>
      <point x="104" y="1543"/>
      <point x="92" y="1508"/>
      <point x="92" y="1466" type="curve" smooth="yes"/>
      <point x="92" y="1356" type="line" smooth="yes"/>
      <point x="92" y="1304"/>
      <point x="101" y="1273"/>
      <point x="118" y="1262" type="curve" smooth="yes"/>
      <point x="205" y="1206"/>
      <point x="131" y="848"/>
      <point x="213" y="725" type="curve"/>
      <point x="217" y="718"/>
      <point x="217" y="702"/>
      <point x="213" y="695" type="curve"/>
      <point x="131" y="572"/>
      <point x="205" y="214"/>
      <point x="118" y="158" type="curve" smooth="yes"/>
      <point x="101" y="147"/>
      <point x="92" y="116"/>
      <point x="92" y="64" type="curve" smooth="yes"/>
      <point x="92" y="-46" type="line" smooth="yes"/>
      <point x="92" y="-88"/>
      <point x="104" y="-123"/>
    </contour>
  </outline>
</glyph>
<glyph name="OE" format="1">
  <advance width="1341"/>
  <unicode hex="0152"/>
  <outline>
    <contour>
      <point x="536" y="-1" type="curve" smooth="yes"/>
      <point x="561" y="-1"/>
      <point x="539" y="0"/>
      <point x="1220" y="0" type="curve" smooth="yes"/>
      <point x="1234" y="0"/>
      <point x="1246" y="34"/>
      <point x="1246" y="77" type="curve" smooth="yes"/>
      <point x="1246" y="300" type="line" smooth="yes"/>
      <point x="1246" y="343"/>
      <point x="1234" y="377"/>
      <point x="1220" y="377" type="curve" smooth="yes"/>
      <point x="888" y="377" type="line" smooth="yes"/>
      <point x="881" y="377"/>
      <point x="876" y="394"/>
      <point x="876" y="414" type="curve" smooth="yes"/>
      <point x="876" y="541" type="line" smooth="yes"/>
      <point x="876" y="561"/>
      <point x="881" y="578"/>
      <point x="888" y="578" type="curve" smooth="yes"/>
      <point x="1128" y="578" type="line" smooth="yes"/>
      <point x="1144" y="578"/>
      <point x="1156" y="612"/>
      <point x="1156" y="655" type="curve" smooth="yes"/>
      <point x="1156" y="804" type="line" smooth="yes"/>
      <point x="1156" y="847"/>
      <point x="1144" y="881"/>
      <point x="1128" y="881" type="curve" smooth="yes"/>
      <point x="888" y="881" type="line" smooth="yes"/>
      <point x="881" y="881"/>
      <point x="876" y="898"/>
      <point x="876" y="918" type="curve" smooth="yes"/>
      <point x="876" y="1018" type="line" smooth="yes"/>
      <point x="876" y="1038"/>
      <point x="881" y="1055"/>
      <point x="888" y="1055" type="curve" smooth="yes"/>
      <point x="1194" y="1055" type="line" smooth="yes"/>
      <point x="1209" y="1055"/>
      <point x="1220" y="1089"/>
      <point x="1220" y="1132" type="curve" smooth="yes"/>
      <point x="1220" y="1361" type="line" smooth="yes"/>
      <point x="1220" y="1403"/>
      <point x="1208" y="1438"/>
      <point x="1194" y="1438" type="curve" smooth="yes"/>
      <point x="509" y="1438" type="line" smooth="yes"/>
      <point x="328" y="1438"/>
      <point x="86" y="1291"/>
      <point x="86" y="721" type="curve" smooth="yes"/>
      <point x="86" y="70"/>
      <point x="355" y="-1"/>
    </contour>
    <contour>
      <point x="595" y="376" type="curve" smooth="yes"/>
      <point x="522" y="376" type="line" smooth="yes"/>
      <point x="434" y="376"/>
      <point x="378" y="454"/>
      <point x="378" y="721" type="curve" smooth="yes"/>
      <point x="378" y="988"/>
      <point x="434" y="1065"/>
      <point x="522" y="1065" type="curve" smooth="yes"/>
      <point x="595" y="1065" type="line" smooth="yes"/>
      <point x="601" y="1065"/>
      <point x="607" y="1048"/>
      <point x="607" y="1028" type="curve" smooth="yes"/>
      <point x="607" y="413" type="line" smooth="yes"/>
      <point x="607" y="393"/>
      <point x="601" y="376"/>
    </contour>
  </outline>
</glyph>
